<svg width="36" height="36" viewBox="0 0 36 36" fill="none" xmlns="http://www.w3.org/2000/svg">
<path d="M16.1631 11.9498C16.3763 11.6517 16.3426 11.243 16.0833 10.9838L11.3101 6.21094C11.0288 5.92969 10.5308 5.92969 10.2495 6.21094L8.65881 7.80185L14.7647 13.9078L16.1631 11.9498Z" fill="white"/>
<path d="M21.0425 23.036C18.9419 23.7175 16.5894 23.1572 15.0227 21.5902C13.4568 20.0243 12.895 17.6721 13.5769 15.5708L13.881 15.145L7.59829 8.8623L6.5376 9.92308C6.43872 10.022 6.36914 10.1468 6.33765 10.2831C6.25195 10.6511 4.31323 19.3662 10.7798 25.8331C11.009 26.0624 15.7412 30.696 22.7043 30.696C23.855 30.696 25.0671 30.5697 26.3298 30.2756C26.4668 30.2438 26.5913 30.1745 26.6902 30.0753L27.7507 29.0147L21.468 22.732L21.0425 23.036Z" fill="white"/>
<path d="M25.6289 20.5299C25.3689 20.2695 24.9602 20.2373 24.6628 20.4501L22.7053 21.8484L28.8112 27.9544L30.4021 26.3633C30.6951 26.0703 30.6951 25.5957 30.4021 25.3027L25.6289 20.5299Z" fill="white"/>
</svg>
