<svg width="36" height="36" viewBox="0 0 36 36" fill="none" xmlns="http://www.w3.org/2000/svg">
<path d="M23.655 25.7251C21.7275 28.0951 19.9425 29.7751 19.5225 30.1576C19.1025 30.5401 18.5625 30.7501 18 30.7501C17.4375 30.7501 16.8975 30.5401 16.485 30.1576C16.065 29.7751 14.28 28.0951 12.345 25.7251C10.8 26.3551 9.75 27.2926 9.75 28.5001C9.75 30.9376 14.0025 32.2501 18 32.2501C21.9975 32.2501 26.25 30.9376 26.25 28.5001C26.25 27.2926 25.2 26.3551 23.655 25.7251Z" fill="white"/>
<path d="M23.25 13.5C23.25 10.6055 20.8945 8.25 18 8.25C15.1055 8.25 12.75 10.6055 12.75 13.5C12.75 16.3945 15.1055 18.75 18 18.75C20.8945 18.75 23.25 16.3945 23.25 13.5ZM15.2197 16.2803C14.9268 15.9873 14.9268 15.5127 15.2197 15.2197L16.9395 13.5L15.2197 11.7803C14.9268 11.4873 14.9268 11.0127 15.2197 10.7197C15.5127 10.4268 15.9873 10.4268 16.2803 10.7197L18 12.4395L19.7197 10.7197C20.0127 10.4268 20.4873 10.4268 20.7803 10.7197C21.0732 11.0127 21.0732 11.4873 20.7803 11.7803L19.0605 13.5L20.7803 15.2197C21.0732 15.5126 21.0732 15.9872 20.7804 16.2801C20.5049 16.5557 20.0126 16.5731 19.7197 16.2803L18 14.5605C18 14.5605 16.2835 16.277 16.2803 16.2803C16.0052 16.5553 15.5116 16.5722 15.2197 16.2803Z" fill="white"/>
<path d="M17.4932 29.053C17.7788 29.3138 18.2216 29.3135 18.5068 29.053C18.884 28.7065 27.75 20.4998 27.75 13.5C27.75 8.12402 23.376 3.75 18 3.75C12.624 3.75 8.25 8.12402 8.25 13.5C8.25 20.4998 17.116 28.7065 17.4932 29.053ZM11.25 13.5C11.25 9.77783 14.2778 6.75 18 6.75C21.7222 6.75 24.75 9.77783 24.75 13.5C24.75 17.2222 21.7222 20.25 18 20.25C14.2778 20.25 11.25 17.2222 11.25 13.5Z" fill="white"/>
</svg>
