<svg width="36" height="36" viewBox="0 0 36 36" fill="none" xmlns="http://www.w3.org/2000/svg">
<g clip-path="url(#clip0_196_2461)">
<path d="M5.35222 25.9966L0.963313 30.3854C-0.319116 31.6679 -0.319186 33.7547 0.963313 35.0374C1.60456 35.6786 2.44691 35.9992 3.28925 35.9992C4.13152 35.9992 4.97394 35.6786 5.61519 35.0374L10.004 30.6485L5.35222 25.9966Z" fill="#E4C8A7"/>
<path d="M11.4956 29.1568L24.4061 16.2462L23.3067 12.7409L19.7144 11.6343L6.84375 24.505L11.4956 29.1568Z" fill="#E4C8A7"/>
<path d="M24.4575 10.8884C24.7893 10.9906 25.0495 11.2495 25.1534 11.5807L26.384 15.5041C26.5463 15.7194 26.7882 15.8686 27.0637 15.9115C27.118 15.92 27.1723 15.9241 27.2262 15.9241C27.5661 15.9241 27.8894 15.7596 28.0888 15.4762L30.5798 11.9345L34.9095 11.9787C35.3123 11.9808 35.6798 11.7587 35.8612 11.4005C36.0426 11.0423 36.0048 10.6123 35.7639 10.2912L33.1654 6.82765L34.5454 2.72351C34.6733 2.34297 34.5742 1.92279 34.2896 1.63964C34.005 1.35649 33.5843 1.25946 33.2044 1.3894L29.1075 2.79044L25.6306 0.209764C25.3083 -0.0294394 24.878 -0.0650879 24.5208 0.118147C24.1636 0.301311 23.9413 0.671436 23.9475 1.07285L24.0139 5.40227L20.485 7.91144C20.1579 8.14411 19.9912 8.54229 20.0549 8.93864C20.1077 9.26608 20.3104 9.54501 20.5956 9.69886L24.4575 10.8884Z" fill="#E4C8A7"/>
<path d="M34.9455 22.5856C32.8756 22.5856 31.1916 20.9015 31.1916 18.8315C31.1916 18.2491 30.7193 17.7769 30.1369 17.7769C29.5544 17.7769 29.0822 18.2491 29.0822 18.8315C29.0822 20.9015 27.3981 22.5856 25.3281 22.5856C24.7457 22.5856 24.2734 23.0578 24.2734 23.6403V23.6523C24.2734 24.2348 24.7457 24.707 25.3281 24.707C27.3981 24.707 29.0822 26.391 29.0822 28.461C29.0822 29.0434 29.5544 29.5157 30.1369 29.5157C30.7193 29.5157 31.1916 29.0434 31.1916 28.461C31.1916 26.391 32.8755 24.707 34.9455 24.707C35.528 24.707 36.0002 24.2348 36.0002 23.6523V23.6403C36.0002 23.0578 35.528 22.5856 34.9455 22.5856Z" fill="#E4C8A7"/>
<path d="M1.05469 6.93105C3.12462 6.93105 4.80874 8.6151 4.80874 10.685C4.80874 11.2675 5.28096 11.7397 5.86343 11.7397C6.4459 11.7397 6.91812 11.2675 6.91812 10.685C6.91812 8.6151 8.6021 6.93105 10.6721 6.93105C11.2546 6.93105 11.7268 6.45883 11.7268 5.87636V5.86441C11.7268 5.28194 11.2546 4.80972 10.6721 4.80972C8.60217 4.80972 6.91812 3.12566 6.91812 1.05566C6.91812 0.473195 6.4459 0.000976562 5.86343 0.000976562C5.28096 0.000976562 4.80874 0.473195 4.80874 1.05566C4.80874 3.12559 3.12469 4.80972 1.05469 4.80972C0.472219 4.80972 0 5.28194 0 5.86441V5.87636C0 6.45883 0.472219 6.93105 1.05469 6.93105Z" fill="#E4C8A7"/>
</g>
<defs>
<clipPath id="clip0_196_2461">
<rect width="36" height="36" fill="white"/>
</clipPath>
</defs>
</svg>
