<svg width="189" height="40" viewBox="0 0 189 40" fill="none" xmlns="http://www.w3.org/2000/svg">
<g opacity="0.7">
<path d="M70.9224 21V10.776H66.8904V8.4H77.8704V10.776H73.8384V21H70.9224ZM82.3373 18.66H89.1953V21H79.4393V8.4H88.9613V10.74H82.3373V13.476H88.1873V15.744H82.3373V18.66ZM97.5103 21.216C93.6043 21.216 90.6883 18.498 90.6883 14.7C90.6883 10.902 93.6043 8.184 97.5283 8.184C99.7063 8.184 101.524 8.976 102.712 10.416L100.84 12.144C99.9943 11.172 98.9323 10.668 97.6723 10.668C95.3143 10.668 93.6403 12.324 93.6403 14.7C93.6403 17.076 95.3143 18.732 97.6723 18.732C98.9323 18.732 99.9943 18.228 100.84 17.238L102.712 18.966C101.524 20.424 99.7063 21.216 97.5103 21.216ZM113.322 8.4H116.238V21H113.322V15.834H107.598V21H104.682V8.4H107.598V13.368H113.322V8.4ZM128.471 14.448C129.875 14.898 130.775 15.978 130.775 17.562C130.775 19.74 129.047 21 125.735 21H119.219V8.4H125.375C128.525 8.4 130.145 9.714 130.145 11.676C130.145 12.936 129.497 13.908 128.471 14.448ZM125.015 10.596H122.117V13.566H125.015C126.437 13.566 127.211 13.062 127.211 12.072C127.211 11.082 126.437 10.596 125.015 10.596ZM125.519 18.804C127.031 18.804 127.841 18.336 127.841 17.256C127.841 16.194 127.031 15.69 125.519 15.69H122.117V18.804H125.519ZM144.142 21H141.01L138.58 17.49H138.436H135.898V21H132.982V8.4H138.436C141.802 8.4 143.908 10.146 143.908 12.972C143.908 14.862 142.954 16.248 141.316 16.95L144.142 21ZM140.956 12.972C140.956 11.586 140.056 10.776 138.274 10.776H135.898V15.168H138.274C140.056 15.168 140.956 14.34 140.956 12.972ZM155.633 21L154.517 18.3H148.667L147.551 21H144.563L150.179 8.4H153.059L158.693 21H155.633ZM149.603 16.086H153.599L151.601 11.262L149.603 16.086ZM168.676 8.4H171.556V21H169.162L162.88 13.35V21H160V8.4H162.412L168.676 16.05V8.4ZM174.537 21V8.4H180.261C184.383 8.4 187.209 10.884 187.209 14.7C187.209 18.516 184.383 21 180.261 21H174.537ZM177.453 18.606H180.117C182.619 18.606 184.257 17.112 184.257 14.7C184.257 12.288 182.619 10.794 180.117 10.794H177.453V18.606Z" fill="#E4C8A7"/>
<path d="M71.8735 28.5266L69.5615 32.3686V34.4766H68.1845V32.3516L65.881 28.5266H67.343L68.9325 31.1701L70.522 28.5266H71.8735ZM75.0738 34.5786C73.1953 34.5786 71.8183 33.2696 71.8183 31.5016C71.8183 29.7336 73.1953 28.4246 75.0738 28.4246C76.9438 28.4246 78.3293 29.7251 78.3293 31.5016C78.3293 33.2781 76.9438 34.5786 75.0738 34.5786ZM75.0738 33.4056C76.1363 33.4056 76.9353 32.6321 76.9353 31.5016C76.9353 30.3711 76.1363 29.5976 75.0738 29.5976C74.0113 29.5976 73.2123 30.3711 73.2123 31.5016C73.2123 32.6321 74.0113 33.4056 75.0738 33.4056ZM82.0077 34.5786C80.3162 34.5786 79.3132 33.6096 79.3132 31.8586V28.5266H80.6902V31.8076C80.6902 32.9381 81.1832 33.4056 82.0162 33.4056C82.8577 33.4056 83.3422 32.9381 83.3422 31.8076V28.5266H84.7022V31.8586C84.7022 33.6096 83.6992 34.5786 82.0077 34.5786ZM91.3329 34.4766H89.8539L88.7064 32.8191H88.6384H87.4399V34.4766H86.0629V28.5266H88.6384C90.2279 28.5266 91.2224 29.3511 91.2224 30.6856C91.2224 31.5781 90.7719 32.2326 89.9984 32.5641L91.3329 34.4766ZM89.8284 30.6856C89.8284 30.0311 89.4034 29.6486 88.5619 29.6486H87.4399V31.7226H88.5619C89.4034 31.7226 89.8284 31.3316 89.8284 30.6856ZM95.9531 34.4766V29.6486H94.0491V28.5266H99.2341V29.6486H97.3301V34.4766H95.9531ZM104.122 34.4766L103.595 33.2016H100.832L100.305 34.4766H98.8942L101.546 28.5266H102.906L105.567 34.4766H104.122ZM101.274 32.1561H103.161L102.218 29.8781L101.274 32.1561ZM110.122 33.1506V31.4081H111.38V33.8221C110.725 34.3151 109.824 34.5786 108.974 34.5786C107.104 34.5786 105.727 33.2951 105.727 31.5016C105.727 29.7081 107.104 28.4246 109 28.4246C110.045 28.4246 110.912 28.7816 111.49 29.4531L110.606 30.2691C110.173 29.8101 109.671 29.5976 109.068 29.5976C107.912 29.5976 107.121 30.3711 107.121 31.5016C107.121 32.6151 107.912 33.4056 109.051 33.4056C109.425 33.4056 109.773 33.3376 110.122 33.1506ZM112.659 34.4766V28.5266H114.036V33.3546H117.019V34.4766H112.659ZM117.789 34.4766V28.5266H119.166V34.4766H117.789ZM124.675 28.5266H126.035V34.4766H124.904L121.938 30.8641V34.4766H120.578V28.5266H121.717L124.675 32.1391V28.5266ZM128.811 33.3716H132.049V34.4766H127.442V28.5266H131.939V29.6316H128.811V30.9236H131.573V31.9946H128.811V33.3716ZM139.573 33.1506V31.4081H140.831V33.8221C140.176 34.3151 139.275 34.5786 138.425 34.5786C136.555 34.5786 135.178 33.2951 135.178 31.5016C135.178 29.7081 136.555 28.4246 138.451 28.4246C139.496 28.4246 140.363 28.7816 140.941 29.4531L140.057 30.2691C139.624 29.8101 139.122 29.5976 138.519 29.5976C137.363 29.5976 136.572 30.3711 136.572 31.5016C136.572 32.6151 137.363 33.4056 138.502 33.4056C138.876 33.4056 139.224 33.3376 139.573 33.1506ZM144.991 34.5786C143.113 34.5786 141.736 33.2696 141.736 31.5016C141.736 29.7336 143.113 28.4246 144.991 28.4246C146.861 28.4246 148.247 29.7251 148.247 31.5016C148.247 33.2781 146.861 34.5786 144.991 34.5786ZM144.991 33.4056C146.054 33.4056 146.853 32.6321 146.853 31.5016C146.853 30.3711 146.054 29.5976 144.991 29.5976C143.929 29.5976 143.13 30.3711 143.13 31.5016C143.13 32.6321 143.929 33.4056 144.991 33.4056ZM150.65 33.3716H153.889V34.4766H149.282V28.5266H153.778V29.6316H150.65V30.9236H153.413V31.9946H150.65V33.3716ZM156.939 34.5786C155.996 34.5786 155.044 34.2981 154.517 33.8901L154.984 32.8531C155.486 33.2186 156.234 33.4736 156.948 33.4736C157.764 33.4736 158.095 33.2016 158.095 32.8361C158.095 31.7226 154.636 32.4876 154.636 30.2776C154.636 29.2661 155.452 28.4246 157.143 28.4246C157.891 28.4246 158.656 28.6031 159.209 28.9516L158.784 29.9971C158.231 29.6826 157.662 29.5296 157.135 29.5296C156.319 29.5296 156.004 29.8356 156.004 30.2096C156.004 31.3061 159.464 30.5496 159.464 32.7341C159.464 33.7286 158.639 34.5786 156.939 34.5786ZM166.892 28.5266H168.269V34.4766H166.892V32.0371H164.189V34.4766H162.812V28.5266H164.189V30.8726H166.892V28.5266ZM171.045 33.3716H174.284V34.4766H169.677V28.5266H174.173V29.6316H171.045V30.9236H173.808V31.9946H171.045V33.3716ZM180.649 34.4766H179.17L178.023 32.8191H177.955H176.756V34.4766H175.379V28.5266H177.955C179.544 28.5266 180.539 29.3511 180.539 30.6856C180.539 31.5781 180.088 32.2326 179.315 32.5641L180.649 34.4766ZM179.145 30.6856C179.145 30.0311 178.72 29.6486 177.878 29.6486H176.756V31.7226H177.878C178.72 31.7226 179.145 31.3316 179.145 30.6856ZM182.998 33.3716H186.237V34.4766H181.63V28.5266H186.126V29.6316H182.998V30.9236H185.761V31.9946H182.998V33.3716Z" fill="#E4C8A7"/>
</g>
<path d="M1.15789 21.2103C1.42104 21.4209 1.6842 21.6314 1.94736 21.8419C2.21052 22.0525 2.52631 22.2103 2.78947 22.4209C3.10526 22.6314 3.42104 22.7893 3.73683 22.9472C4.05262 23.1051 4.36842 23.263 4.73684 23.4209C5.42105 23.684 6.15788 23.9472 6.89472 24.0525C7.63157 24.2103 8.42105 24.263 9.21053 24.263C10 24.263 10.7895 24.1577 11.5263 23.9998C11.7895 23.9472 12 23.8946 12.2105 23.7893C11.6316 22.6314 11.3158 21.3682 11.3158 19.9998C11.3158 17.8946 12.0526 15.9998 13.2631 14.5261C13 14.1051 12.7368 13.684 12.4737 13.263C12 12.4209 11.6316 11.5261 11.3158 10.5261C11 9.52614 10.7895 8.4735 10.6842 7.42087C10.5789 6.36824 10.5789 5.26298 10.6842 4.21035C10.7368 3.68403 10.8421 3.15772 10.9474 2.6314C11 2.47351 11 2.31561 11.0526 2.15771C4.52632 5.42087 0 12.2103 0 20.0525C0 20.1051 0 20.2103 0 20.263C0.368421 20.5261 0.736832 20.8419 1.15789 21.2103Z" fill="#E4C8A7"/>
<path d="M19.7897 0C19.6844 0.105263 19.5265 0.210525 19.4213 0.368419C19.0002 0.789472 18.5792 1.26316 18.1581 1.73684C17.9476 2 17.7371 2.26316 17.5265 2.52632C17.316 2.78947 17.1581 3.10526 16.9476 3.36842C16.737 3.68421 16.5792 4 16.4213 4.31579C16.2634 4.63158 16.1055 4.94737 15.9476 5.31579C15.6844 6 15.4213 6.73684 15.316 7.47368C15.1581 8.21053 15.1055 9 15.1055 9.78947C15.1055 10.5789 15.2107 11.3684 15.3686 12.1053C15.4213 12.2632 15.4739 12.4211 15.4739 12.5789C16.7897 11.7895 18.316 11.3158 19.9476 11.3158C22.1055 11.3158 24.1055 12.1053 25.5792 13.4211C25.737 13.3158 25.8949 13.2105 26.1055 13.1053C26.9476 12.6316 27.8423 12.2632 28.8423 11.9474C29.8423 11.6316 30.8949 11.4211 31.9476 11.3158C33.0002 11.2105 34.1055 11.2105 35.1581 11.3158C35.6844 11.3684 36.2107 11.4737 36.7371 11.5789C37.2107 11.6842 37.737 11.7895 38.2107 11.9474C35.1055 4.94737 28.1055 0.0526308 19.8949 0.0526308C19.9476 -8.03879e-07 19.8949 0 19.7897 0Z" fill="#E4C8A7"/>
<path d="M19.3688 39.6314C19.7899 39.2103 20.2109 38.7367 20.632 38.263C20.8425 37.9998 21.053 37.7367 21.2636 37.4735C21.4741 37.2103 21.632 36.8946 21.8425 36.6314C22.053 36.3156 22.2109 35.9998 22.3688 35.684C22.5267 35.3682 22.6846 35.0525 22.8425 34.684C23.1057 33.9998 23.3688 33.263 23.4741 32.5261C23.632 31.7893 23.6846 30.9998 23.6846 30.2103C23.6846 29.4735 23.5793 28.7367 23.4215 27.9998C22.3688 28.4209 21.2109 28.684 20.053 28.684C17.632 28.684 15.4741 27.684 13.8951 26.1577C13.5267 26.4209 13.1056 26.684 12.6846 26.8946C11.8425 27.3682 10.9478 27.7367 9.94776 28.0525C8.94776 28.3682 7.89513 28.5788 6.8425 28.684C5.78987 28.7893 4.6846 28.7893 3.63197 28.684C3.10566 28.6314 2.57934 28.5261 2.05302 28.4209C2.00039 28.4209 2.00039 28.4209 1.94775 28.4209C5.00039 34.9472 11.4741 39.5788 19.1057 39.9998C19.1057 39.8419 19.2109 39.7367 19.3688 39.6314Z" fill="#E4C8A7"/>
<path d="M39.6316 20.6316C39.4211 20.421 39.2632 20.2631 39.0526 20.0526C38.6316 19.6316 38.1579 19.2105 37.6842 18.7894C37.421 18.5789 37.1579 18.3684 36.8947 18.1579C36.6316 17.9473 36.3158 17.7894 36.0526 17.5789C35.7368 17.3684 35.421 17.2105 35.1053 17.0526C34.7895 16.8947 34.4737 16.7368 34.1053 16.5789C33.4211 16.3158 32.6842 16.0526 31.9474 15.9473C31.2105 15.7894 30.4211 15.7368 29.6316 15.7368C29 15.7368 28.3684 15.8421 27.6842 15.9473C28.3158 17.1579 28.6842 18.5263 28.6842 20C28.6842 22.4737 27.6316 24.6842 26 26.2631C26.1053 26.421 26.2105 26.5789 26.2632 26.7368C26.7368 27.5789 27.1053 28.4737 27.421 29.4737C27.7368 30.4737 27.9474 31.5263 28.0526 32.5789C28.1579 33.6316 28.1579 34.7368 28.0526 35.7894C28 36.3158 27.8947 36.8421 27.7895 37.3684C27.6842 37.7368 27.6316 38.1052 27.5263 38.4737C34.5263 35.6316 39.5263 28.9473 39.8947 21C39.8421 20.8947 39.7368 20.7894 39.6316 20.6316Z" fill="#E4C8A7"/>
<path d="M20.0002 23.1049C21.7442 23.1049 23.1581 21.691 23.1581 19.947C23.1581 18.2029 21.7442 16.7891 20.0002 16.7891C18.2561 16.7891 16.8423 18.2029 16.8423 19.947C16.8423 21.691 18.2561 23.1049 20.0002 23.1049Z" fill="#E4C8A7"/>
</svg>
