<svg width="18" height="18" viewBox="0 0 18 18" fill="none" xmlns="http://www.w3.org/2000/svg">
<path d="M15.5516 8.40018H1C0.84087 8.40018 0.688258 8.4634 0.575736 8.57592C0.463214 8.68844 0.4 8.84105 0.4 9.00018C0.4 9.15931 0.463214 9.31193 0.575736 9.42445C0.688258 9.53697 0.84087 9.60018 1 9.60018H15.5516L8.57576 16.576L8.57455 16.5772C8.46526 16.6904 8.40478 16.842 8.40615 16.9993C8.40751 17.1566 8.47062 17.3071 8.58186 17.4183C8.6931 17.5296 8.84359 17.5927 9.00091 17.594C9.15823 17.5954 9.30979 17.5349 9.42295 17.4256L9.42296 17.4256L9.42419 17.4244L17.4242 9.42443C17.4242 9.42442 17.4242 9.42442 17.4242 9.42442C17.4799 9.36872 17.5241 9.30258 17.5543 9.2298C17.5844 9.15701 17.5999 9.07899 17.5999 9.0002C17.5999 8.92142 17.5844 8.8434 17.5543 8.77061C17.5241 8.69782 17.4799 8.63169 17.4242 8.57599C17.4242 8.57599 17.4242 8.57598 17.4242 8.57598L9.42419 0.575993L9.4242 0.575982L9.42295 0.574775C9.30979 0.46548 9.15823 0.405003 9.00091 0.40637C8.84359 0.407737 8.6931 0.470839 8.58186 0.582084C8.47062 0.693329 8.40751 0.843816 8.40615 1.00113C8.40478 1.15845 8.46526 1.31001 8.57455 1.42317L8.57454 1.42319L8.57577 1.42441L15.5516 8.40018Z" fill="#828282" stroke="#828282" stroke-width="0.2"/>
</svg>
