<svg width="36" height="36" viewBox="0 0 36 36" fill="none" xmlns="http://www.w3.org/2000/svg">
<path d="M3.75 16.9014V31.0986L14.398 24L3.75 16.9014Z" fill="white"/>
<path d="M21.6021 24L32.25 31.0987V16.9014L21.6021 24Z" fill="white"/>
<path d="M8.25 14.0127L4.57269 15.6471L8.25 18.0987V14.0127Z" fill="white"/>
<path d="M27.75 14.0127V18.0987L31.4273 15.6471L27.75 14.0127Z" fill="white"/>
<path d="M18.416 26.124C18.1754 26.2845 17.8377 26.2929 17.584 26.124L15.75 24.9014L4.72705 32.25H31.2728L20.25 24.9014L18.416 26.124ZM15 30C14.5858 30 14.25 29.6642 14.25 29.25C14.25 28.8358 14.5858 28.5 15 28.5C15.4142 28.5 15.75 28.8358 15.75 29.25C15.75 29.6642 15.4142 30 15 30ZM18 30C17.5858 30 17.25 29.6642 17.25 29.25C17.25 28.8358 17.5858 28.5 18 28.5C18.4142 28.5 18.75 28.8358 18.75 29.25C18.75 29.6642 18.4142 30 18 30ZM21 28.5C21.4142 28.5 21.75 28.8358 21.75 29.25C21.75 29.6642 21.4142 30 21 30C20.5858 30 20.25 29.6642 20.25 29.25C20.25 28.8358 20.5858 28.5 21 28.5Z" fill="white"/>
<path d="M16.1643 23.3749L18 24.5988L19.8333 23.3766C19.8356 23.375 19.8378 23.3735 19.8402 23.372L26.25 19.0987V4.5C26.25 4.08577 25.9142 3.75 25.5 3.75H10.5C10.0858 3.75 9.75 4.08577 9.75 4.5V19.0987L16.1611 23.3728L16.1643 23.3749ZM12.75 7.5H23.25C23.6645 7.5 24 7.83581 24 8.25C24 8.66419 23.6645 9 23.25 9H12.75C12.3358 9 12 8.66419 12 8.25C12 7.83581 12.3358 7.5 12.75 7.5ZM12.75 10.5H23.25C23.6645 10.5 24 10.8358 24 11.25C24 11.6642 23.6645 12 23.25 12H12.75C12.3358 12 12 11.6642 12 11.25C12 10.8358 12.3358 10.5 12.75 10.5ZM12.75 13.5H23.25C23.6645 13.5 24 13.8358 24 14.25C24 14.6642 23.6645 15 23.25 15H12.75C12.3358 15 12 14.6642 12 14.25C12 13.8358 12.3358 13.5 12.75 13.5ZM12 17.25C12 16.8358 12.3358 16.5 12.75 16.5H23.25C23.6645 16.5 24 16.8358 24 17.25C24 17.6642 23.6645 18 23.25 18H12.75C12.3358 18 12 17.6642 12 17.25Z" fill="white"/>
</svg>
