<?xml version="1.0" encoding="utf-8"?>
<!-- Generator: Adobe Illustrator 16.0.0, SVG Export Plug-In . SVG Version: 6.00 Build 0)  -->
<!DOCTYPE svg PUBLIC "-//W3C//DTD SVG 1.0//EN" "http://www.w3.org/TR/2001/REC-SVG-20010904/DTD/svg10.dtd">
<svg version="1.0" id="Layer_1" xmlns="http://www.w3.org/2000/svg" xmlns:xlink="http://www.w3.org/1999/xlink" x="0px" y="0px"
	 width="100px" height="100px" viewBox="0 0 100 100" enable-background="new 0 0 100 100" xml:space="preserve">
<path d="M64.146,33.314C60.781,37.396,55.69,40,50,40c-5.69,0-10.783-2.604-14.147-6.686C30.069,36.055,24.626,40.463,20,46.667h60
	C75.374,40.463,69.932,36.055,64.146,33.314z"/>
<circle cx="50" cy="21.667" r="11.666"/>
<path d="M83.333,83.333l6.475-23.531c0.889-3.559-1.384-6.469-5.049-6.469H15.243c-3.667,0-5.939,2.91-5.051,6.469l6.475,23.531H10
	v6.666h79.999v-6.666H83.333z M50,76.666c-2.76,0-5-2.239-5-5c0-2.76,2.24-5,5-5c2.761,0,5,2.24,5,5
	C55,74.427,52.761,76.666,50,76.666z"/>
</svg>
