<svg width="392" height="42" viewBox="0 0 392 42" fill="none" xmlns="http://www.w3.org/2000/svg">
<circle cx="21" cy="21" r="20.5" stroke="white"/>
<path d="M31.3334 14.9548C30.5856 15.2859 29.7815 15.5096 28.9368 15.6117C29.7985 15.0948 30.4599 14.277 30.7716 13.3049C29.9648 13.7811 29.073 14.1292 28.1222 14.3163C27.3613 13.5051 26.2769 13 25.0773 13C22.7736 13 20.9048 14.8659 20.9048 17.1674C20.9048 17.4945 20.9414 17.8125 21.0135 18.1173C17.5469 17.9446 14.4731 16.2855 12.4144 13.7641C12.0556 14.3804 11.85 15.0948 11.85 15.859C11.85 17.3048 12.586 18.5792 13.7057 19.329C13.0221 19.3067 12.379 19.1196 11.8159 18.8069C11.8146 18.8239 11.8146 18.8422 11.8146 18.8605C11.8146 20.8795 13.2526 22.5635 15.162 22.9481C14.8124 23.0423 14.4443 23.0934 14.0632 23.0934C13.7935 23.0934 13.5328 23.0672 13.2788 23.0175C13.8092 24.674 15.3506 25.8778 17.1762 25.9118C15.7474 27.0305 13.9493 27.6965 11.9953 27.6965C11.6574 27.6965 11.3261 27.6782 11 27.6389C12.8466 28.8218 15.0389 29.5113 17.3949 29.5113C25.0694 29.5113 29.2642 23.1614 29.2642 17.6515C29.2642 17.471 29.2603 17.2917 29.2524 17.1125C30.067 16.525 30.7742 15.7909 31.3334 14.9548Z" fill="white"/>
<circle cx="283" cy="21" r="20.5" stroke="white"/>
<path fill-rule="evenodd" clip-rule="evenodd" d="M279.152 19.8157H276.291V16.3969H279.152C279.787 16.3969 280.307 17.1665 280.307 18.1055C280.307 19.0429 279.787 19.8157 279.152 19.8157ZM283.184 24.8945C283.184 23.0401 282.355 21.4506 281.234 20.8738C282.046 20.126 282.598 18.7795 282.598 17.2621C282.598 14.9014 281.315 13 279.738 13H274V29.9969H279.738C281.623 29.9984 283.184 27.713 283.184 24.8945ZM286.044 24.0543H292.35C292.35 23.9085 292.35 23.7643 292.35 23.6185C292.35 20.1041 290.644 17.2637 288.06 17.2637C285.458 17.2637 283.752 20.1041 283.752 23.6185C283.752 27.158 285.459 30 288.06 30C290.644 30 291.879 27.8086 292.269 24.8961H289.945C289.733 26.3884 289.132 27.448 288.06 27.448C286.971 27.448 286.125 25.9542 286.044 24.0543ZM289.945 22.3441H286.157C286.288 20.8267 287.052 19.8157 288.06 19.8157C289.051 19.8157 289.783 20.8503 289.945 22.3441ZM285.475 13.8449H290.628V16.3969H285.475V13.8449ZM276.292 22.3441H279.153C279.788 22.3441 280.876 22.7532 280.876 24.5575C280.876 25.498 280.373 26.6047 279.739 26.6047H276.293V22.3441H276.292Z" fill="white"/>
<circle cx="108" cy="21" r="20.5" stroke="white"/>
<path d="M113.713 29.9858H101.287C100.025 29.9858 99 28.9604 99 27.7011V15.2846C99 14.0254 100.026 13 101.287 13H113.713C114.974 13 116 14.0254 116 15.2846V27.7011C116 28.9616 114.974 29.9858 113.713 29.9858ZM101.287 14.3219C100.755 14.3219 100.323 14.7542 100.323 15.2846V27.7011C100.323 28.2327 100.755 28.6639 101.287 28.6639H113.713C114.245 28.6639 114.677 28.2315 114.677 27.7011V15.2846C114.677 14.7542 114.244 14.3219 113.713 14.3219H101.287Z" fill="white"/>
<path fill-rule="evenodd" clip-rule="evenodd" d="M112.459 21.713C112.459 24.411 110.27 26.5976 107.57 26.5976C104.869 26.5976 102.681 24.411 102.681 21.713C102.681 19.0149 104.869 16.8271 107.57 16.8271C110.27 16.8283 112.459 19.0149 112.459 21.713Z" fill="white"/>
<path fill-rule="evenodd" clip-rule="evenodd" d="M113.558 16.3506C113.558 16.8786 113.13 17.3074 112.6 17.3074C112.071 17.3074 111.643 16.8786 111.643 16.3506C111.643 15.8214 112.071 15.3926 112.6 15.3926C113.129 15.3926 113.558 15.8214 113.558 16.3506Z" fill="white"/>
<circle cx="195" cy="21" r="20.5" stroke="white"/>
<path fill-rule="evenodd" clip-rule="evenodd" d="M195.219 13C190.42 13.0012 188 16.3261 188 19.1007C188 19.6127 188.062 20.1086 188.188 20.5651C188.472 21.6039 189.088 22.444 190.067 22.8314C190.3 22.9215 190.508 22.8351 190.573 22.5871C190.62 22.4156 190.73 21.9839 190.781 21.8025C190.846 21.5582 190.822 21.4731 190.635 21.2597C190.391 20.9808 190.202 20.6514 190.087 20.2493C190.01 19.9815 189.967 19.6842 189.967 19.3437C189.967 16.8751 191.879 14.6655 194.941 14.6655C197.654 14.6655 199.144 16.2681 199.144 18.4073C199.144 19.039 199.08 19.6472 198.959 20.211C198.537 22.1677 197.428 23.6 195.945 23.6C194.887 23.6 194.095 22.7574 194.348 21.7198C194.494 21.1289 194.703 20.5194 194.882 19.9433C195.079 19.3104 195.241 18.7219 195.241 18.2544C195.241 17.4561 194.796 16.7887 193.879 16.7887C192.799 16.7887 191.929 17.8682 191.929 19.3153C191.929 19.588 191.958 19.8323 191.997 20.0445C192.092 20.5503 192.251 20.8612 192.251 20.8612C192.251 20.8612 191.145 25.3876 190.951 26.1822C190.566 27.7625 190.893 29.6982 190.92 29.8931C190.936 30.0079 191.092 30.0362 191.16 29.9487C191.26 29.8216 192.548 28.2869 192.985 26.7534C193.108 26.3179 193.695 24.0688 193.695 24.0688C194.047 24.7153 195.072 25.284 196.163 25.284C198.808 25.284 200.759 23.3866 201.393 20.6107C201.537 19.9778 201.614 19.3005 201.614 18.5912C201.615 15.6981 199.076 13 195.219 13Z" fill="white"/>
<circle cx="371" cy="21" r="20.5" stroke="white"/>
<path d="M370.498 12C365.261 12 361 16.2575 361 21.4908C361 26.7252 365.261 30.9828 370.498 30.9828C375.737 30.9828 380 26.7252 380 21.4908C380 16.2575 375.739 12 370.498 12ZM379.093 21.661C376.786 21.1902 374.784 21.2266 373.065 21.5789C372.808 20.8626 372.474 20.144 372.093 19.4395C374.413 18.5765 376.041 17.3683 376.954 15.8254C378.287 17.3389 379.096 19.3209 379.096 21.4896C379.097 21.5483 379.094 21.6035 379.093 21.661ZM376.3 15.1562C375.417 16.8153 373.651 17.9143 371.639 18.6423C370.253 16.3174 368.5 14.2838 367.678 13.3785C368.563 13.0697 369.512 12.9006 370.498 12.9006C372.732 12.9018 374.769 13.7566 376.3 15.1562ZM366.787 13.746C367.417 14.427 369.287 16.5276 370.757 18.9346C367.29 19.9808 363.388 20.0595 362.025 20.0501C362.5 17.2661 364.315 14.9319 366.787 13.746ZM361.903 21.4908C361.903 21.31 361.91 21.1303 361.921 20.953C362.026 20.9554 362.145 20.9554 362.283 20.9554C363.448 20.9554 365.749 20.8884 368.246 20.4505C369.331 20.2614 370.32 20.0207 371.225 19.7378C371.601 20.4176 371.93 21.1104 372.182 21.7949C367.713 23.0524 365.344 26.4035 364.572 27.7068C362.93 26.1381 361.903 23.9331 361.903 21.4908ZM365.264 28.2974C365.848 27.229 368.021 23.8239 372.454 22.625C373.567 26.3096 373.79 28.0884 373.928 29.3671C372.877 29.825 371.717 30.081 370.498 30.081C368.53 30.081 366.714 29.4153 365.264 28.2974ZM374.788 28.9315C374.641 27.647 374.364 25.8387 373.335 22.4231C374.952 22.1155 376.842 22.1049 379.026 22.5687C378.685 25.2881 377.065 27.6153 374.788 28.9315Z" fill="white"/>
</svg>
