<svg width="24" height="24" viewBox="0 0 24 24" fill="none" xmlns="http://www.w3.org/2000/svg">
<path d="M18.5516 11.3999H4C3.84087 11.3999 3.68826 11.4632 3.57574 11.5757C3.46321 11.6882 3.4 11.8408 3.4 11.9999C3.4 12.1591 3.46321 12.3117 3.57574 12.4242C3.68826 12.5367 3.84087 12.5999 4 12.5999H18.5516L11.5758 19.5757L11.5746 19.577C11.4653 19.6901 11.4048 19.8417 11.4061 19.999C11.4075 20.1563 11.4706 20.3068 11.5819 20.4181C11.6931 20.5293 11.8436 20.5924 12.0009 20.5938C12.1582 20.5952 12.3098 20.5347 12.423 20.4254L12.423 20.4254L12.4242 20.4242L20.4242 12.4242C20.4242 12.4242 20.4242 12.4242 20.4242 12.4242C20.4799 12.3685 20.5241 12.3023 20.5543 12.2296C20.5844 12.1568 20.5999 12.0787 20.5999 12C20.5999 11.9212 20.5844 11.8432 20.5543 11.7704C20.5241 11.6976 20.4799 11.6314 20.4242 11.5757C20.4242 11.5757 20.4242 11.5757 20.4242 11.5757L12.4242 3.57575L12.4242 3.57574L12.423 3.57453C12.3098 3.46524 12.1582 3.40476 12.0009 3.40613C11.8436 3.40749 11.6931 3.47059 11.5819 3.58184C11.4706 3.69308 11.4075 3.84357 11.4061 4.00089C11.4048 4.15821 11.4653 4.30977 11.5746 4.42293L11.5745 4.42294L11.5758 4.42417L18.5516 11.3999Z" fill="#726454" stroke="#726454" stroke-width="0.2"/>
</svg>
